<?xml version="1.0" encoding="UTF-8" standalone="no"?>
<!DOCTYPE svg PUBLIC "-//W3C//DTD SVG 1.1//EN" "http://www.w3.org/Graphics/SVG/1.1/DTD/svg11.dtd">
<svg width="100%" height="100%" viewBox="0 0 670 350" version="1.1" xmlns="http://www.w3.org/2000/svg" xmlns:xlink="http://www.w3.org/1999/xlink" xml:space="preserve" xmlns:serif="http://www.serif.com/" style="fill-rule:evenodd;clip-rule:evenodd;stroke-linecap:square;stroke-miterlimit:1.5;">
    <g transform="matrix(1,0,0,1,-172.916,-86.4456)">
        <g transform="matrix(1,0,0,1,-7.14828,0)">
            <g opacity="0.16">
                <g transform="matrix(1.10373,0,0,1.10373,-436.184,-9.7263)">
                    <path d="M858.171,109.833L982.012,181.333L982.012,324.333L858.171,395.833L734.329,324.333L734.329,181.333L858.171,109.833Z" style="fill:none;stroke:white;stroke-width:8.82px;"/>
                </g>
                <path d="M593.08,170.032L576.675,192.074L574.282,189.681C571.841,187.239 568.044,186.791 565.101,188.597L553.25,195.868C546.183,191.646 538.46,188.408 530.272,186.343L527.036,172.83C526.233,169.472 523.23,167.104 519.778,167.104L498.51,167.104C495.058,167.104 492.056,169.472 491.252,172.83L488.016,186.343C479.827,188.408 472.104,191.646 465.037,195.868L453.187,188.597C450.244,186.791 446.447,187.239 444.006,189.681L428.968,204.718C426.526,207.16 426.078,210.957 427.884,213.9L435.156,225.75C430.934,232.817 427.696,240.54 425.63,248.729L412.117,251.965C408.759,252.769 406.391,255.771 406.391,259.223L406.391,280.49C406.391,283.942 408.759,286.945 412.117,287.749L425.63,290.984C427.696,299.174 430.934,306.897 435.156,313.964L427.884,325.814C426.078,328.756 426.526,332.553 428.968,334.995L444.006,350.033C446.447,352.474 450.244,352.923 453.187,351.118L465.037,343.846C472.104,348.067 479.827,351.305 488.016,353.37L491.252,366.884C492.056,370.242 495.058,372.61 498.51,372.61L519.778,372.61C523.23,372.61 526.233,370.242 527.036,366.884L530.272,353.37C538.46,351.305 546.183,348.067 553.25,343.846L565.101,351.118C568.044,352.923 571.841,352.474 574.282,350.033L589.32,334.995C591.762,332.553 592.211,328.756 590.404,325.814L583.132,313.964C587.355,306.897 590.593,299.174 592.658,290.984L606.172,287.749C609.528,286.945 611.898,283.942 611.898,280.49L611.898,259.223C611.898,255.771 609.528,252.769 606.172,251.965L592.658,248.729C590.593,240.54 587.355,232.817 583.132,225.75L590.404,213.9C592.211,210.957 591.762,207.16 589.32,204.718L587.557,202.956L603.276,175.918L638.04,195.989L638.04,342.677L511.004,416.021L383.969,342.677L383.969,195.989L511.004,122.645L593.08,170.032ZM565.436,241.009C569.878,249.661 572.384,259.466 572.384,269.856C572.384,303.847 545.568,331.574 511.936,333.035L565.436,241.009ZM450.12,247.106L495.211,331.556C466.986,325.208 445.904,299.994 445.904,269.856C445.904,261.837 447.397,254.167 450.12,247.106ZM453.127,240.481C463.706,220.348 484.821,206.617 509.144,206.617C526.083,206.617 541.467,213.277 552.822,224.124L503.728,290.087L453.127,240.481Z" style="fill:white;"/>
                <g transform="matrix(0.217202,0,0,0.303821,379.236,47.4562)">
                    <path d="M573.116,986.492L572.951,986.72L572.94,986.709L572.711,986.991L276.972,591.016L573.161,798.599L1270.96,128.33L573.116,986.492ZM573.183,968.319L327.179,638.936C327.179,638.936 564.258,805.092 564.258,805.092L583.364,804.028C583.364,804.028 944.514,457.124 1147.18,262.453L573.183,968.319Z" style="fill:white;"/>
                </g>
            </g>
        </g>
        <g transform="matrix(1,0,0,1,0,-207.405)">
            <g transform="matrix(0.414478,0,0,0.414478,94.0369,250.356)">
                <path d="M222.124,527.88L222.124,586.079L312.587,586.079L289.067,609.75L214.283,609.75L190.31,586.079L190.31,528.333L214.283,504.209L316.357,504.209L292.987,527.88L222.124,527.88Z" style="fill:white;fill-rule:nonzero;"/>
            </g>
            <g transform="matrix(0.414478,0,0,0.414478,94.0369,250.356)">
                <path d="M331.132,504.209L362.946,504.209L362.946,546.425L425.969,546.425L425.969,504.209L457.782,504.209L457.782,609.75L425.969,609.75L425.969,567.835L362.946,567.835L362.946,609.75L331.132,609.599L331.132,504.209Z" style="fill:white;fill-rule:nonzero;"/>
            </g>
            <g transform="matrix(0.414478,0,0,0.414478,94.0369,250.356)">
                <path d="M481.604,504.209L607.65,504.209L584.28,527.88L513.417,527.88L513.417,546.425L592.271,546.425L570.861,567.835L513.417,567.835L513.417,586.079L603.881,586.079L580.36,609.75L481.604,609.75L481.604,504.209Z" style="fill:white;fill-rule:nonzero;"/>
            </g>
            <g transform="matrix(0.414478,0,0,0.414478,94.0369,250.356)">
                <path d="M622.878,504.209L748.924,504.209L725.555,527.88L654.691,527.88L654.691,546.425L733.546,546.425L712.136,567.835L654.691,567.835L654.691,609.599L622.878,609.599L622.878,504.209Z" style="fill:white;fill-rule:nonzero;"/>
            </g>
            <g transform="matrix(0.414478,0,0,0.414478,94.0369,250.356)">
                <path d="M944.779,504.209L968.751,528.182L968.751,585.777L944.779,609.75L857.029,609.75L833.056,585.777L833.056,528.182L857.029,504.209L944.779,504.209ZM936.938,527.88L864.869,527.88L864.869,586.079L936.938,586.079L936.938,527.88Z" style="fill:white;fill-rule:nonzero;"/>
            </g>
            <g transform="matrix(0.414478,0,0,0.414478,94.0369,250.356)">
                <path d="M990.161,504.209L1100.38,504.209L1124.35,536.776L1096.46,574.469L1021.97,574.469L1021.97,609.599L990.161,609.599L990.161,504.209ZM1021.97,527.88L1021.97,550.496L1083.19,550.496L1091.63,538.887L1083.34,527.88L1021.97,527.88Z" style="fill:white;fill-rule:nonzero;"/>
            </g>
            <g transform="matrix(0.414478,0,0,0.414478,94.0369,250.356)">
                <path d="M1255.37,546.425L1278.59,577.334L1254.77,609.75L1132.34,609.75L1155.71,586.079L1236.07,586.079L1243.61,577.485L1235.92,567.835L1155.56,567.835L1132.34,536.625L1156.31,504.209L1278.59,504.209L1255.07,527.88L1174.86,527.88L1167.17,536.776L1174.86,546.425L1255.37,546.425Z" style="fill:white;fill-rule:nonzero;"/>
            </g>
            <g transform="matrix(0.414478,0,0,0.414478,94.0369,250.356)">
                <path d="M1368.75,504.209L1478.97,504.209L1502.94,536.776L1475.05,574.469L1400.57,574.469L1400.57,609.599L1368.75,609.599L1368.75,504.209ZM1400.57,527.88L1400.57,550.496L1461.78,550.496L1470.22,538.887L1461.93,527.88L1400.57,527.88Z" style="fill:white;fill-rule:nonzero;"/>
            </g>
            <g transform="matrix(0.414478,0,0,0.414478,94.0369,250.356)">
                <path d="M1518.32,504.209L1628.53,504.209L1652.51,536.776L1634.26,561.201L1652.51,579.445L1652.51,609.599L1620.69,609.599L1620.69,583.817L1611.04,574.469L1550.13,574.469L1550.13,609.75L1518.32,609.75L1518.32,504.209ZM1550.13,550.496L1611.19,550.496L1619.79,538.736L1611.5,527.88L1550.13,527.88L1550.13,550.496Z" style="fill:white;fill-rule:nonzero;"/>
            </g>
            <g transform="matrix(0.414478,0,0,0.414478,94.0369,250.356)">
                <path d="M1781.57,504.209L1805.54,528.182L1805.54,585.777L1781.57,609.75L1693.82,609.75L1669.85,585.777L1669.85,528.182L1693.82,504.209L1781.57,504.209ZM1773.73,527.88L1701.66,527.88L1701.66,586.079L1773.73,586.079L1773.73,527.88Z" style="fill:white;fill-rule:nonzero;"/>
            </g>
        </g>
    </g>
</svg>
